<svg id="Livello_1" data-name="Livello 1" xmlns="http://www.w3.org/2000/svg" viewBox="0 0 106.6 177.84"><defs><style>.cls-1{fill:#161616;}</style></defs><path class="cls-1" d="M129.92,49.77a.82.82,0,0,0,.82.81c1.25,0,2.42,0,3.6,0,2.82,0,3.76.62,4.48,3.37a10,10,0,0,1,.34,3.61,3.71,3.71,0,0,1-4.78,3.14c-.61-.14-1.22-.27-1.84-.36s-1-.12-1.6-.17a.8.8,0,0,0-.89.75s0,.09,0,.13c0,3.56-.13,7.13-.08,10.7.06,4,.16,8,.43,11.93a63.36,63.36,0,0,1-.52,11.92,18.78,18.78,0,0,1-1.27,5.76c-.63,1.34-1.32,2-2.85,2-2.69,0-5.38-.24-8.07-.28-5.94-.09-11.9-.46-17.84-.18-7.78.36-10.35,3.11-10.5,4.35a57,57,0,0,0-1.58,16,.82.82,0,0,0,.82.79c1.7,0,3.39,0,5.08,0,7.34.08,14.68.26,22,.22,5.1,0,10.2-.46,15.31-.52a48.27,48.27,0,0,1,7.48.61,4.34,4.34,0,0,1,3.59,3.92,55.43,55.43,0,0,1,.81,8.12c.21,10.91.33,21.82.43,32.73a42.48,42.48,0,0,1-.39,5.85c-.39,2.88-2.14,4.19-5,3.9-3.65-.38-7.29-1.1-10.94-1.12-12.9-.06-25.8.16-38.71.2-9.82,0-19.65,0-29.47-.11a23.54,23.54,0,0,1-4.57-.59c-2.89-.58-4.59-2.66-5.62-5.19a78.36,78.36,0,0,1-3.2-9.29A211.63,211.63,0,0,1,40,135c-.8-6.27-1.33-12.58-2-18.87-1.13-10.73-1-21.51-1.25-32.27-.11-4.88.36-9.78.54-14.67.12-3.18.23-6.36.27-9.54a6.75,6.75,0,0,1,2.48-5,2.11,2.11,0,0,1,1-.44c4.48-.72,9-1.44,13.46-2.12.62-.09.79-.36.83-.94.36-5.69.76-11.37,1.12-17.06.37-5.89.67-11.79,1.07-17.68a19.11,19.11,0,0,1,1.95-7.79A13.19,13.19,0,0,1,70.32,1.39a53,53,0,0,1,11,0c3.48.34,7,.37,10.47.66,7.94.64,15.89,1.31,23.82,2.06a15.53,15.53,0,0,1,5,1.37c4.09,1.94,7,5,7.68,9.69.59,4.5,1.19,9,1.37,13.54.27,6.81.17,13.63.23,20.45Zm.71,83.27a.82.82,0,0,0-.74-.87c-.91-.1-1.8-.19-2.68-.25a177.8,177.8,0,0,0-22,.16c-7.09.4-14.17.75-21.25-.15A4.06,4.06,0,0,1,80.18,128a81,81,0,0,1-.14-9.21c.4-4.83,1.14-9.64,1.84-14.43a5.27,5.27,0,0,1,2.68-3.73,35.34,35.34,0,0,1,15.85-5.3c2.65-.17,5.28-.52,7.92-.78A9.54,9.54,0,0,0,116,89.77c.24-.41.46-.83.67-1.26a22,22,0,0,0,2.22-9.13l.51-18.73h0a.79.79,0,0,0-.79-.81c-17.72,0-35.39-.73-53.08-.11a.81.81,0,0,0-.77.79h0c-.12,11.36-.29,22.72-.33,34.08,0,4.34.29,8.67.41,13,.05,1.68-.89,3-2.43,3a55.32,55.32,0,0,1-5.72-.57,10.49,10.49,0,0,1-1.48-.3c-1.08-.31-1.67-.71-1.85-1.81a13.79,13.79,0,0,1-.09-3.08c.27-6.25.65-12.5.87-18.76.27-8.24.43-16.49.63-24.74v-.06a.82.82,0,0,0-.81-.83c-2.9,0-5.67,0-8.45,0-.18,0-.5.44-.51.68-.32,6.67-.84,13.34-.85,20,0,7.12.34,14.25.75,21.37.32,5.65.85,11.29,1.52,16.9.64,5.41,1.38,10.83,2.44,16.17,1.36,6.91,3.06,13.76,4.67,20.63.74,3.13,1.58,6.23,2.42,9.33a2.67,2.67,0,0,0,.77,1.19,12.66,12.66,0,0,0,8.51,3.3c5.73.06,11.46.16,17.19,0,6.08-.16,12.15-.62,18.22-.94,7.29-.38,14.59-.74,21.89-1.13,1.84-.1,3.67-.23,5.64-.37a.82.82,0,0,0,.76-.84C128.65,155.47,129.81,144.3,130.63,133ZM118.78,50.71a.82.82,0,0,0,.82-.76l0-.35a117.32,117.32,0,0,0-.48-16.23,66,66,0,0,0-1.89-12.51,30.29,30.29,0,0,0-3.61-8.34,2.26,2.26,0,0,0-2.14-1.15c-3.49,0-7,0-10.48-.12-5-.16-10-.44-15-.59a104.21,104.21,0,0,0-18.59,1.19.94.94,0,0,0-.63.61c-.15,1-.23,2-.28,3-.11,2.31-.18,4.61-.28,6.92Q65.69,36.17,65.09,50V50a.81.81,0,0,0,.85.82C83.57,50.1,101.14,50.58,118.78,50.71Z" transform="translate(-36.7 -1.08)"/><path class="cls-1" d="M50.27,40.9c-.08,3.07-2.06,5.25-4.72,5.19a5,5,0,0,1-4.78-5.39c0-2.49,2.54-4.64,5.31-4.56C48.62,36.21,50.34,38.17,50.27,40.9Z" transform="translate(-36.7 -1.08)"/><path class="cls-1" d="M49,25.9a3.79,3.79,0,0,1-3.79,3.9,4.2,4.2,0,0,1-4.33-3.94c0-2.92,2.15-3.77,4.8-4C47.6,21.71,49,23.53,49,25.9Z" transform="translate(-36.7 -1.08)"/><path class="cls-1" d="M49.39,12.43a2.13,2.13,0,1,1-2.13-2.11A2.12,2.12,0,0,1,49.39,12.43Z" transform="translate(-36.7 -1.08)"/></svg>